<svg width="15" height="18" viewBox="0 0 15 18" fill="none" xmlns="http://www.w3.org/2000/svg">
<path d="M15 11.8125V1.6875C15 0.755508 14.2801 0 13.3929 0H3.21429C1.43906 0 0 1.51102 0 3.375V14.625C0 16.489 1.43906 18 3.21429 18H13.9286C14.5202 18 15 17.4962 15 16.9066C15 16.4946 14.7788 16.1501 14.4643 15.9539V13.0936C14.7924 12.7547 15 12.3117 15 11.8125ZM4.79129 4.5H11.2199C11.5446 4.5 11.7857 4.75313 11.7857 5.0625C11.7857 5.37187 11.5446 5.625 11.25 5.625H4.79129C4.52679 5.625 4.28571 5.37187 4.28571 5.0625C4.28571 4.75313 4.52679 4.5 4.79129 4.5ZM4.79129 6.75H11.2199C11.5446 6.75 11.7857 7.00313 11.7857 7.3125C11.7857 7.62187 11.5446 7.875 11.25 7.875H4.79129C4.52679 7.875 4.28571 7.62187 4.28571 7.3125C4.28571 7.00313 4.52679 6.75 4.79129 6.75ZM12.8571 15.75H3.21429C2.62266 15.75 2.14286 15.2462 2.14286 14.625C2.14286 14.0038 2.62266 13.5 3.21429 13.5H12.8571V15.75Z" fill="white"/>
</svg>
