<svg width="19" height="20" viewBox="0 0 19 20" fill="none" xmlns="http://www.w3.org/2000/svg">
<path d="M16.9756 18.7862C17.3105 18.8162 17.5874 18.7717 17.782 18.878C17.9747 18.9833 18.2021 19.2439 18.1972 19.4307C18.1925 19.6137 17.9369 19.8216 17.7472 19.9561C17.6404 20.0318 17.4442 19.9866 17.2883 19.9867C12.6308 19.9876 7.97333 19.9873 3.31586 19.9857C1.87288 19.9844 0.773699 18.9255 0.766805 17.4416C0.744585 12.6584 0.7444 7.87512 0.76625 3.09175C0.776251 1.33189 2.12947 0.0254314 3.92562 0.0150135C8.02683 -0.00876772 12.1283 -0.000588271 16.2296 0.0140509C17.472 0.0184855 18.2419 0.814353 18.2442 2.0542C18.2514 6.08957 18.2519 10.1249 18.2456 14.1603C18.2447 14.9575 17.9747 15.6171 17.2294 16.0223C17.1156 16.0841 16.99 16.2489 16.9867 16.3692C16.9652 17.1647 16.9756 17.9611 16.9756 18.7862ZM5.72853 8.11451C5.72853 10.2549 5.73645 12.3953 5.72131 14.5356C5.71855 14.9263 5.80721 15.0858 6.23713 15.0837C9.52305 15.0676 12.8091 15.0784 16.0951 15.0719C16.8598 15.0704 17.0884 14.8368 17.0895 14.064C17.0947 10.1139 17.0949 6.16372 17.0899 2.21357C17.0888 1.43617 16.8226 1.1674 16.0571 1.16618C12.7885 1.16098 9.51982 1.17132 6.25128 1.15673C5.83577 1.15487 5.71775 1.28794 5.72086 1.6934C5.73726 3.83367 5.72855 5.97412 5.72853 8.11451ZM1.95287 15.2357C2.70489 15.1791 3.3862 15.1027 4.06894 15.0865C4.43458 15.0778 4.53935 14.9616 4.53844 14.6001C4.52764 10.2895 4.52846 5.9789 4.5409 1.6683C4.54251 1.21979 4.36365 1.13101 3.98012 1.16966C2.6335 1.30534 1.95882 2.02716 1.95617 3.39539C1.94887 7.16716 1.94777 10.9389 1.95287 14.7107C1.95285 14.9128 1.95287 15.1149 1.95287 15.2357ZM15.7466 18.793V16.2389H15.1484C11.5026 16.2389 7.85673 16.2393 4.21089 16.2402C3.82928 16.2404 3.44682 16.245 3.06627 16.2703C2.46259 16.3105 2.01581 16.7706 1.9621 17.383C1.90532 18.0305 2.26136 18.6308 2.82426 18.7611C3.10756 18.8267 3.41054 18.8233 3.70464 18.8235C7.54144 18.8263 11.3782 18.8257 15.215 18.8219C15.3836 18.8218 15.5521 18.804 15.7466 18.793Z" fill="#1A1A37"/>
<path d="M11.1679 9.9986C10.1806 9.99873 9.19338 9.99873 8.20614 9.99862C7.64388 9.99841 7.40306 9.86818 7.41726 9.56776C7.43444 9.20417 7.80261 9.16837 8.19617 9.16804C10.1707 9.16635 12.1452 9.16621 14.1197 9.1676C14.6766 9.1682 14.9407 9.31198 14.915 9.60027C14.8838 9.94923 14.5391 10.0018 14.1296 9.99994C13.1424 9.99541 12.1551 9.99847 11.1679 9.9986Z" fill="#1A1A37"/>
<path d="M11.1573 5.83331C10.2236 5.83331 9.28984 5.83317 8.35613 5.83289C8.23286 5.83463 8.10955 5.83125 7.98685 5.82278C7.62299 5.79209 7.39604 5.66576 7.41815 5.38633C7.43856 5.12833 7.66217 5.00248 8.00578 5.00193C10.1198 4.99852 12.2338 4.99963 14.3478 5.00528C14.7045 5.00606 14.916 5.14884 14.9167 5.39833C14.9175 5.68463 14.6746 5.82582 14.2756 5.82675C13.2361 5.82915 12.1967 5.82756 11.1573 5.82756V5.83331Z" fill="#1A1A37"/>
</svg>
