<svg width="26" height="20" viewBox="0 0 26 20" fill="none" xmlns="http://www.w3.org/2000/svg">
<path d="M1.625 2.94892C3.06312 2.3842 5.12525 1.77523 7.1305 1.58597C9.29175 1.38146 11.1248 1.68213 12.1875 2.73372V17.6086C10.6681 16.7997 8.7425 16.6882 6.96638 16.8561C5.04888 17.0393 3.11512 17.5597 1.625 18.0939V2.94892ZM13.8125 2.73372C14.8752 1.68213 16.7083 1.38146 18.8695 1.58597C20.8748 1.77523 22.9369 2.3842 24.375 2.94892V18.0939C22.8833 17.5597 20.9511 17.0378 19.0336 16.8577C17.2559 16.6882 15.3319 16.7981 13.8125 17.6086V2.73372ZM13 1.35398C11.3994 0.0612467 9.07888 -0.131061 6.96638 0.0673518C4.50613 0.300868 2.02313 1.09299 0.476125 1.75386C0.33418 1.8145 0.21381 1.91221 0.129384 2.03535C0.0449584 2.15849 4.31786e-05 2.30185 0 2.44831L0 19.2371C3.76382e-05 19.3648 0.0341854 19.4904 0.0993153 19.6025C0.164445 19.7146 0.258475 19.8095 0.372793 19.8786C0.48711 19.9477 0.61806 19.9887 0.753648 19.998C0.889236 20.0072 1.02513 19.9844 1.14888 19.9315C2.58213 19.321 4.89125 18.5869 7.12888 18.3748C9.4185 18.158 11.3376 18.5075 12.3663 19.7133C12.4424 19.8024 12.5389 19.8743 12.6485 19.9238C12.7582 19.9732 12.8783 19.9989 13 19.9989C13.1217 19.9989 13.2418 19.9732 13.3515 19.9238C13.4611 19.8743 13.5576 19.8024 13.6338 19.7133C14.6624 18.5075 16.5815 18.158 18.8695 18.3748C21.1088 18.5869 23.4195 19.321 24.8511 19.9315C24.9749 19.9844 25.1108 20.0072 25.2464 19.998C25.3819 19.9887 25.5129 19.9477 25.6272 19.8786C25.7415 19.8095 25.8356 19.7146 25.9007 19.6025C25.9658 19.4904 26 19.3648 26 19.2371V2.44831C26 2.30185 25.955 2.15849 25.8706 2.03535C25.7862 1.91221 25.6658 1.8145 25.5239 1.75386C23.9769 1.09299 21.4939 0.300868 19.0336 0.0673518C16.9211 -0.132587 14.6006 0.0612467 13 1.35398Z" fill="#1A1A37"/>
</svg>
