<svg width="25" height="18" viewBox="0 0 25 18" fill="none" xmlns="http://www.w3.org/2000/svg">
<path d="M6.26268 0.00155705C4.63951 -0.028577 2.76461 0.379237 0.807248 1.17678C0.311615 1.37872 0 1.84656 0 2.34799V16.7159C0 17.18 0.520371 17.5014 0.97434 17.3045C6.45581 14.9283 10.5138 17.7465 10.6874 17.8674C10.811 17.9558 10.9586 18 11.1105 18C11.6487 18 11.8049 17.5428 11.8049 17.3579V1.93013C11.8049 1.72108 11.6951 1.52513 11.5106 1.4046C11.4273 1.34915 9.40487 0.0541911 6.26268 0.00155705ZM24.1914 1.17678C22.2336 0.381647 20.3513 -0.0129074 18.736 0.00115518C15.592 0.0538696 13.6104 1.34915 13.4889 1.40419C13.3022 1.52513 13.1937 1.7208 13.1937 1.93013V17.3226C13.1937 17.5339 13.3456 18 13.8881 18C14.0393 18 14.1893 17.9548 14.3126 17.8663C14.483 17.745 18.5416 14.9268 24.0257 17.3038C24.4796 17.5005 25 17.179 25 16.7152L25 2.34727C24.9596 1.84696 24.6862 1.37848 24.1914 1.17678Z" fill="white"/>
</svg>
