<svg width="21" height="24" viewBox="0 0 21 24" fill="none" xmlns="http://www.w3.org/2000/svg">
<path d="M10.5001 8.26688e-09C11.4425 -6.44109e-05 12.3491 0.37636 13.034 1.05206C13.719 1.72775 14.1303 2.65149 14.1837 3.63378L14.1894 3.85185H20.1489C20.3646 3.85192 20.5722 3.93747 20.7299 4.09123C20.8875 4.24498 20.9833 4.45546 20.998 4.68015C21.0127 4.90484 20.9452 5.12698 20.8091 5.30169C20.6729 5.47639 20.4784 5.59064 20.2647 5.62133L20.1489 5.62963H19.2453L17.7923 21.0607C17.7195 21.8301 17.3872 22.5473 16.8547 23.0844C16.3222 23.6215 15.6241 23.9435 14.8852 23.9929L14.6854 24H6.31483C5.57411 24 4.85752 23.7249 4.29314 23.2241C3.72876 22.7232 3.35336 22.0291 3.23404 21.2658L3.20793 21.0596L1.75381 5.62963H0.851362C0.64563 5.62962 0.44686 5.55183 0.291812 5.41065C0.136764 5.26946 0.0359255 5.07443 0.00794601 4.86163L0 4.74074C8.67583e-06 4.52594 0.0745142 4.31841 0.209738 4.15653C0.344962 3.99464 0.531756 3.88936 0.735577 3.86015L0.851362 3.85185H6.81089C6.81089 2.83028 7.19958 1.85054 7.89145 1.12818C8.58331 0.405819 9.52168 8.26689e-09 10.5001 8.26688e-09ZM17.5346 5.62963H3.46448L4.90271 20.8853C4.93456 21.2257 5.07823 21.5441 5.30935 21.7865C5.54046 22.0289 5.84479 22.1803 6.17067 22.2151L6.31483 22.2222H14.6854C15.3665 22.2222 15.9443 21.7185 16.076 21.0347L16.0987 20.8853L17.5335 5.62963H17.5346ZM12.4866 8.88889C12.6924 8.8889 12.8911 8.96669 13.0462 9.10787C13.2012 9.24906 13.3021 9.44408 13.3301 9.65689L13.338 9.77778V18.0741C13.3379 18.2993 13.256 18.5161 13.1087 18.6806C12.9615 18.8452 12.7599 18.9453 12.5447 18.9606C12.3295 18.976 12.1167 18.9055 11.9494 18.7633C11.782 18.6212 11.6726 18.4181 11.6432 18.195L11.6353 18.0741V9.77778C11.6353 9.54203 11.725 9.31594 11.8846 9.14924C12.0443 8.98254 12.2608 8.88889 12.4866 8.88889ZM8.51362 8.88889C8.71935 8.8889 8.91812 8.96669 9.07317 9.10787C9.22822 9.24906 9.32905 9.44408 9.35703 9.65689L9.36498 9.77778V18.0741C9.36491 18.2993 9.28297 18.5161 9.13571 18.6806C8.98845 18.8452 8.78685 18.9453 8.57165 18.9606C8.35644 18.976 8.14368 18.9055 7.97635 18.7633C7.80902 18.6212 7.6996 18.4181 7.6702 18.195L7.66226 18.0741V9.77778C7.66226 9.54203 7.75195 9.31594 7.91161 9.14924C8.07128 8.98254 8.28782 8.88889 8.51362 8.88889ZM10.5001 1.77778C10.0016 1.7778 9.52127 1.97354 9.15453 2.32614C8.7878 2.67874 8.56145 3.16243 8.52043 3.68119L8.51362 3.85185H12.4866C12.4866 3.30177 12.2773 2.77422 11.9048 2.38526C11.5323 1.9963 11.027 1.77778 10.5001 1.77778Z" fill="#9ED263"/>
</svg>
