<svg width="26" height="22" viewBox="0 0 26 22" fill="none" xmlns="http://www.w3.org/2000/svg">
<path d="M13.5098 1.11668L24.8923 10.334C24.9398 10.3725 24.9739 10.424 24.9898 10.4817C25.0058 10.5394 25.0029 10.6004 24.9816 10.6564C24.9602 10.7124 24.9215 10.7608 24.8705 10.795C24.8196 10.8292 24.759 10.8476 24.6968 10.8476H23.0157C22.9479 10.8476 22.8809 10.8604 22.8183 10.8853C22.7557 10.9101 22.6988 10.9466 22.651 10.9926C22.6031 11.0386 22.5651 11.0932 22.5391 11.1532C22.5132 11.2133 22.4999 11.2777 22.4999 11.3427V18.7179C22.4999 19.0176 22.4384 19.3143 22.3189 19.5912C22.1995 19.8681 22.0244 20.1197 21.8036 20.3316C21.5829 20.5435 21.3208 20.7116 21.0324 20.8263C20.744 20.941 20.4348 21 20.1227 21H17.4868C17.1562 21 16.8392 20.8739 16.6054 20.6495C16.3716 20.4251 16.2403 20.1207 16.2403 19.8033V13.9512C16.2403 13.8023 16.1787 13.6596 16.0691 13.5543C15.9594 13.449 15.8107 13.3899 15.6556 13.3899H11.0469C10.8919 13.3899 10.7432 13.449 10.6335 13.5543C10.5239 13.6596 10.4623 13.8023 10.4623 13.9512V19.8033C10.4623 20.1207 10.3309 20.4251 10.0972 20.6495C9.86338 20.8739 9.54633 21 9.21573 21H6.38213C5.75166 21 5.147 20.7596 4.70119 20.3316C4.25538 19.9036 4.00493 19.3231 4.00493 18.7179V11.8475C4.00493 11.781 3.99098 11.7152 3.96391 11.654C3.93684 11.5927 3.89721 11.5374 3.84739 11.4912C3.79756 11.445 3.73855 11.409 3.67388 11.3851C3.60922 11.3613 3.54022 11.3503 3.471 11.3526L1.31384 11.4254C1.25121 11.4275 1.18942 11.4109 1.137 11.3779C1.08458 11.345 1.04409 11.2972 1.02111 11.2412C0.998133 11.1852 0.99379 11.1238 1.00868 11.0653C1.02358 11.0069 1.05697 10.9543 1.10427 10.9148L12.8388 1.12147C12.9317 1.04397 13.0504 1.00089 13.1734 1.00001C13.2964 0.999134 13.4158 1.04051 13.5098 1.11668Z" stroke="#1A1A37" stroke-miterlimit="10"/>
</svg>
