<svg width="21" height="18" viewBox="0 0 21 18" fill="none" xmlns="http://www.w3.org/2000/svg">
<path d="M0.00642014 8.98242C0.00642014 9.61523 0.553318 10.1109 1.17314 10.1109H2.33985L2.31433 15.7395C2.31433 15.8379 2.32162 15.9293 2.33256 16.0242V16.5938C2.33256 17.3707 2.98519 18 3.79095 18H4.37431C4.41442 18 4.45452 17.9684 4.49463 17.9965C4.54567 17.9684 4.59671 18 4.64776 18H6.70774C7.5135 18 8.16613 17.3707 8.16613 16.5938V13.5C8.16613 12.8777 8.68751 12.375 9.33285 12.375H11.6663C12.3116 12.375 12.833 12.8777 12.833 13.5V16.5938C12.833 17.3707 13.4856 18 14.2914 18H16.3295C16.3842 18 16.4389 17.9965 16.4936 17.993C16.5373 17.9965 16.5811 18 16.6248 18H17.2082C18.0136 18 18.6666 17.3707 18.6666 16.5938V12.6562C18.6666 12.6246 18.6655 12.5895 18.6633 12.5578V10.1109H19.8315C20.4888 10.1109 21 9.61523 21 8.98242C21 8.66602 20.8905 8.38477 20.635 8.13867L11.2871 0.281812C11.0319 0.0352266 10.7402 0 10.485 0C10.2298 0 9.93808 0.0704531 9.71568 0.246586L0.407478 8.13867C0.115799 8.38477 -0.0336857 8.66602 0.00642014 8.98242Z" fill="white"/>
</svg>
