<svg width="25" height="22" viewBox="0 0 25 22" fill="none" xmlns="http://www.w3.org/2000/svg">
<path d="M13 0.122727C12.8467 0.0422043 12.6748 0 12.5 0C12.3252 0 12.1533 0.0422043 12 0.122727L1.45833 5.64254C0.558333 6.11653 0 7.0205 0 8.00046V18.0001C0 19.061 0.438987 20.0783 1.22039 20.8285C2.00179 21.5786 3.0616 22 4.16667 22H20.8333C21.9384 22 22.9982 21.5786 23.7796 20.8285C24.561 20.0783 25 19.061 25 18.0001V8.00046C25.0003 7.51813 24.8649 7.04467 24.6083 6.63002C24.3516 6.21537 23.9831 5.87491 23.5417 5.64454L13 0.120727V0.122727ZM2.45208 7.40048L12.5 2.14066L22.5458 7.40048C22.6059 7.4309 22.6607 7.47003 22.7083 7.51648L12.5 12.8603L2.29167 7.51648C2.3398 7.47059 2.39244 7.43153 2.45208 7.40048ZM13 14.8782L22.9167 9.68441V18.0001C22.9167 18.5305 22.6972 19.0392 22.3065 19.4143C21.9158 19.7894 21.3859 20.0001 20.8333 20.0001H4.16667C3.61413 20.0001 3.08423 19.7894 2.69353 19.4143C2.30283 19.0392 2.08333 18.5305 2.08333 18.0001V9.68441L12 14.8802C12.1533 14.9608 12.3252 15.003 12.5 15.003C12.6748 15.003 12.8467 14.9588 13 14.8782Z" fill="#9ED263"/>
</svg>
