<svg width="21" height="21" viewBox="0 0 21 21" fill="none" xmlns="http://www.w3.org/2000/svg">
<path d="M21 18.9702L20.7604 18.7542C20.0807 18.1356 19.4857 17.4263 18.9916 16.6452C18.452 15.5674 18.1285 14.3903 18.0403 13.183V9.62725C18.0449 7.73103 17.3715 5.89834 16.1466 4.4735C14.9216 3.04867 13.2294 2.12977 11.3879 1.88946V0.960925C11.3879 0.706072 11.2888 0.461657 11.1124 0.281449C10.9359 0.10124 10.6967 0 10.4471 0C10.1976 0 9.95835 0.10124 9.78192 0.281449C9.60549 0.461657 9.50638 0.706072 9.50638 0.960925V1.90386C7.68139 2.16149 6.00964 3.08594 4.80078 4.50599C3.59191 5.92604 2.92783 7.74545 2.93154 9.62725V13.183C2.84328 14.3903 2.51984 15.5674 1.9802 16.6452C1.49458 17.4243 0.909198 18.1336 0.239597 18.7542L0 18.9702V21H21V18.9702Z" fill="#1A1A37"/>
</svg>
