<svg width="14" height="14" viewBox="0 0 14 14" fill="none" xmlns="http://www.w3.org/2000/svg">
<path d="M13.4147 6.04582L1.50765 0.0982513C1.34702 0.0239032 1.17032 -0.00912824 0.993647 0.00216389C0.816972 0.013456 0.645931 0.0687131 0.496092 0.162905C0.346253 0.257097 0.222375 0.387232 0.135736 0.541465C0.0490974 0.695697 0.00244848 0.869128 3.60039e-05 1.04597V12.936C-0.00146411 13.1175 0.0439362 13.2964 0.131849 13.4552C0.219762 13.6141 0.347214 13.7477 0.501886 13.8429C0.656559 13.9382 0.833221 13.992 1.0148 13.9992C1.19637 14.0063 1.37672 13.9666 1.53842 13.8837L13.4147 7.93614C13.5906 7.84792 13.7386 7.71256 13.8419 7.5452C13.9453 7.37784 14 7.18507 14 6.98842C14 6.79177 13.9453 6.599 13.8419 6.43164C13.7386 6.26428 13.5906 6.12892 13.4147 6.0407V6.04582Z" fill="white"/>
</svg>
