<svg width="19" height="20" viewBox="0 0 19 20" fill="none" xmlns="http://www.w3.org/2000/svg">
<path d="M18.246 18.4014C18.2296 18.0964 18.1849 17.7927 18.1436 17.4897C17.7422 14.5434 15.1489 11.9054 12.3619 11.7486C10.5359 11.643 8.70564 11.6395 6.87926 11.738C3.57172 11.9225 0.841299 14.9374 0.751188 18.3715C0.72232 19.4718 1.219 19.9991 2.28795 19.9994C4.67802 20.0002 7.0681 20.0002 9.45817 19.9995C11.9006 19.9992 14.343 19.9987 16.7854 19.9979C17.7839 19.9962 18.3013 19.429 18.246 18.4014ZM16.5435 18.7929C14.1899 18.7857 11.8362 18.7891 9.48257 18.7891C7.14637 18.788 4.81014 18.7807 2.47402 18.7947C2.04782 18.7972 1.87466 18.6702 1.92361 18.2049C2.20873 15.4946 3.88352 13.5503 6.4742 12.9867C6.89558 12.8951 7.34008 12.8934 7.77408 12.8913C9.11633 12.8849 10.4598 12.8646 11.8007 12.9112C14.6466 13.01 16.9251 15.367 17.0796 18.3033C17.1035 18.7568 16.8836 18.7939 16.5435 18.7929Z" fill="#1A1A37"/>
<path d="M9.89415 9.99999C12.7298 10.0063 14.9199 7.84357 14.9118 5.04503C15.0279 2.51363 13.0499 -0.0121152 9.93627 4.37242e-05C6.8791 0.0119809 4.91621 2.2897 4.91667 5.08275C4.91711 7.79982 7.14154 9.99385 9.89415 9.99999ZM9.86867 1.18174C12.0508 1.17899 13.7742 2.87881 13.7547 5.0144C13.735 7.17214 12.0788 8.7971 9.90042 8.79612C9.39644 8.79914 8.89693 8.70191 8.43106 8.51013C7.96519 8.31835 7.54231 8.03587 7.18715 7.67918C6.83198 7.3225 6.55166 6.89877 6.36255 6.43277C6.17344 5.96676 6.07935 5.46783 6.08578 4.96514C6.10683 2.89935 7.82164 1.18431 9.86867 1.18174Z" fill="#1A1A37"/>
</svg>
