<svg xmlns="http://www.w3.org/2000/svg" width="27.732" height="27.732" viewBox="0 0 27.732 27.732">
  <g id="Setting_05" transform="translate(0.746 0.746)">
    <g id="Group_1069" data-name="Group 1069" transform="translate(0 0)">
      <path id="Path_199" data-name="Path 199" d="M1512.438,996.73l1.88-.9c.186,0,.266-2,1.99-2.1a5.527,5.527,0,0,1,1.033,0c.973.039,1.849.187,2.288,2.1a13.665,13.665,0,0,1,1.721.73" transform="translate(-1503.857 -993.71)" fill="none" stroke="#8d8d8d" stroke-linejoin="round" stroke-width="1.5"/>
      <path id="Path_200" data-name="Path 200" d="M0,2.758a14.422,14.422,0,0,1,2.32-.64c.186,0,.266-2,1.99-2.1a5.491,5.491,0,0,1,1.033,0c.973.039,1.849.187,2.288,2.1a8.333,8.333,0,0,1,1.835.711" transform="translate(19.175 0.755) rotate(45)" fill="none" stroke="#8d8d8d" stroke-linejoin="round" stroke-width="1.5"/>
      <path id="Path_203" data-name="Path 203" d="M0,.166A12.344,12.344,0,0,0,2.157.8c.186,0,.266,2,1.99,2.1a5.485,5.485,0,0,0,1.033,0C6.153,2.858,7.029,2.71,7.468.8A15.3,15.3,0,0,0,9.662,0" transform="translate(9.109 2.935) rotate(135)" fill="none" stroke="#8d8d8d" stroke-linejoin="round" stroke-width="1.5"/>
      <path id="Path_204" data-name="Path 204" d="M0,2.509a6.312,6.312,0,0,1,1.529-.391c.188,0,.269-2,2.011-2.1a5.6,5.6,0,0,1,1.044,0c.983.039,1.868.187,2.312,2.1a1.927,1.927,0,0,0,.471.2,13.948,13.948,0,0,1,1.916.751" transform="translate(26.241 9.039) rotate(90)" fill="none" stroke="#8d8d8d" stroke-linejoin="round" stroke-width="1.5"/>
      <path id="Path_205" data-name="Path 205" d="M1521.358,993.688h0l-1.93.854c-.187,0-.267,2-1.99,2.1a5.479,5.479,0,0,1-1.033,0c-.973-.039-1.849-.187-2.288-2.1a13.677,13.677,0,0,1-1.721-.73" transform="translate(-1503.65 -970.42)" fill="none" stroke="#8d8d8d" stroke-linejoin="round" stroke-width="1.5"/>
      <path id="Path_206" data-name="Path 206" d="M0,2.741a14.254,14.254,0,0,1,2.3-.622c.186,0,.266-2,1.99-2.1a5.485,5.485,0,0,1,1.033,0c.973.039,1.849.187,2.288,2.1a10.617,10.617,0,0,1,1.714.587" transform="translate(7.054 25.473) rotate(-135)" fill="none" stroke="#8d8d8d" stroke-linejoin="round" stroke-width="1.5"/>
      <path id="Path_207" data-name="Path 207" d="M0,.353a9.128,9.128,0,0,0,2.192.6c.186,0,.266,2,1.99,2.1a5.485,5.485,0,0,0,1.033,0c.973-.039,1.849-.187,2.288-2.1A13.706,13.706,0,0,0,9.865,0" transform="translate(16.999 23.225) rotate(-45)" fill="none" stroke="#8d8d8d" stroke-linejoin="round" stroke-width="1.5"/>
      <path id="Path_208" data-name="Path 208" d="M0,2.417a5.824,5.824,0,0,1,1.443-.3c.188,0,.269-2,2.011-2.1A5.6,5.6,0,0,1,4.5.022c.983.039,1.868.187,2.312,2.1A13.93,13.93,0,0,1,9.2,3.068" transform="translate(0 17.115) rotate(-90)" fill="none" stroke="#8d8d8d" stroke-linejoin="round" stroke-width="1.5"/>
    </g>
    <g id="Ellipse_24" data-name="Ellipse 24" transform="translate(4.723 4.723)" fill="none" stroke="#8d8d8d" stroke-width="1.5">
      <circle cx="8.397" cy="8.397" r="8.397" stroke="none"/>
      <circle cx="8.397" cy="8.397" r="7.647" fill="none"/>
    </g>
  </g>
</svg>
