<svg width="70" height="70" viewBox="0 0 70 70" fill="none" xmlns="http://www.w3.org/2000/svg">
<g filter="url(#filter0_d_133_997)">
<circle cx="31" cy="31" r="25" fill="#9ED263"/>
</g>
<path d="M25.6001 22C25.6001 20.5678 26.169 19.1943 27.1817 18.1816C28.1944 17.1689 29.5679 16.6 31.0001 16.6C32.4323 16.6 33.8058 17.1689 34.8185 18.1816C35.8312 19.1943 36.4001 20.5678 36.4001 22V31C36.4001 32.4321 35.8312 33.8057 34.8185 34.8184C33.8058 35.831 32.4323 36.4 31.0001 36.4C29.5679 36.4 28.1944 35.831 27.1817 34.8184C26.169 33.8057 25.6001 32.4321 25.6001 31V22Z" fill="white"/>
<path d="M22.9 28.3C23.1387 28.3 23.3676 28.3948 23.5364 28.5636C23.7052 28.7324 23.8 28.9613 23.8 29.2V31C23.8 32.9095 24.5586 34.7409 25.9088 36.0912C27.2591 37.4414 29.0904 38.2 31 38.2C32.9096 38.2 34.7409 37.4414 36.0912 36.0912C37.4414 34.7409 38.2 32.9095 38.2 31V29.2C38.2 28.9613 38.2948 28.7324 38.4636 28.5636C38.6324 28.3948 38.8613 28.3 39.1 28.3C39.3387 28.3 39.5676 28.3948 39.7364 28.5636C39.9052 28.7324 40 28.9613 40 29.2V31C40 33.2311 39.1713 35.3828 37.6746 37.0374C36.1779 38.6921 34.12 39.7319 31.9 39.955V43.6H37.3C37.5387 43.6 37.7676 43.6948 37.9364 43.8636C38.1052 44.0324 38.2 44.2613 38.2 44.5C38.2 44.7387 38.1052 44.9676 37.9364 45.1364C37.7676 45.3052 37.5387 45.4 37.3 45.4H24.7C24.4613 45.4 24.2324 45.3052 24.0636 45.1364C23.8948 44.9676 23.8 44.7387 23.8 44.5C23.8 44.2613 23.8948 44.0324 24.0636 43.8636C24.2324 43.6948 24.4613 43.6 24.7 43.6H30.1V39.955C27.88 39.7319 25.8221 38.6921 24.3254 37.0374C22.8287 35.3828 22 33.2311 22 31V29.2C22 28.9613 22.0948 28.7324 22.2636 28.5636C22.4324 28.3948 22.6613 28.3 22.9 28.3Z" fill="white"/>
<defs>
<filter id="filter0_d_133_997" x="0" y="0" width="70" height="70" filterUnits="userSpaceOnUse" color-interpolation-filters="sRGB">
<feFlood flood-opacity="0" result="BackgroundImageFix"/>
<feColorMatrix in="SourceAlpha" type="matrix" values="0 0 0 0 0 0 0 0 0 0 0 0 0 0 0 0 0 0 127 0" result="hardAlpha"/>
<feOffset dx="4" dy="4"/>
<feGaussianBlur stdDeviation="5"/>
<feComposite in2="hardAlpha" operator="out"/>
<feColorMatrix type="matrix" values="0 0 0 0 0 0 0 0 0 0 0 0 0 0 0 0 0 0 0.1 0"/>
<feBlend mode="normal" in2="BackgroundImageFix" result="effect1_dropShadow_133_997"/>
<feBlend mode="normal" in="SourceGraphic" in2="effect1_dropShadow_133_997" result="shape"/>
</filter>
</defs>
</svg>
